<?xml version="1.0" encoding="UTF-8" standalone="no"?>
<svg
   width="210mm"
   height="297mm"
   viewBox="0 0 210 297"
   font-family="Anonymous Pro"
   version="1.1"
   id="svg2"
   sodipodi:docname="no_data.svg"
   xmlns:inkscape="http://www.inkscape.org/namespaces/inkscape"
   xmlns:sodipodi="http://sodipodi.sourceforge.net/DTD/sodipodi-0.dtd"
   xmlns="http://www.w3.org/2000/svg"
   xmlns:svg="http://www.w3.org/2000/svg">
  <defs
     id="defs2" />
  <sodipodi:namedview
     id="namedview2"
     pagecolor="#ffffff"
     bordercolor="#000000"
     borderopacity="0.25"
     inkscape:showpageshadow="2"
     inkscape:pageopacity="0.0"
     inkscape:pagecheckerboard="0"
     inkscape:deskcolor="#d1d1d1"
     inkscape:document-units="mm" />
  <!-- 白色背景 -->
  <rect
     width="100%"
     height="100%"
     fill="white"
     id="rect1" />
  <!-- ========= 手动改下面 4 个数字即可 ========= -->
  <g
     fill="#bbbbbb"
     transform="translate(43,90) rotate(-40)"
     id="g2">
    <!-- x,y,角度 -->
    <!-- 字体大小 -->
    <path
       d="m 31.042969,0 h -8.4375 L 9,-33.257812 V 0 H 1.7226562 v -45.878906 h 9.1406248 l 12.902344,31.605468 v -31.605468 h 7.277344 z m 41.871093,-16.347656 q 0,3.832031 -1.230468,6.9609372 -1.195313,3.1289063 -3.480469,5.4140625 -2.25,2.2500001 -5.414063,3.51562505 -3.164062,1.265625 -7.066406,1.265625 -3.832031,0 -6.996094,-1.265625 -3.164062,-1.26562495 -5.449218,-3.51562505 -2.25,-2.2851562 -3.480469,-5.4140625 -1.195313,-3.1289062 -1.195313,-6.9609372 0,-3.726563 1.195313,-6.890625 1.230469,-3.199219 3.480469,-5.484375 2.285156,-2.320313 5.449218,-3.550781 3.164063,-1.265625 6.996094,-1.265625 3.902344,0 7.066406,1.265625 3.164063,1.230468 5.414063,3.550781 2.285156,2.285156 3.480469,5.484375 1.230468,3.164062 1.230468,6.890625 z m -7.242187,0 q 0,-2.214844 -0.703125,-4.183594 Q 64.300781,-22.535156 63,-23.941406 61.699219,-25.347656 59.835937,-26.15625 58.007812,-27 55.722656,-27 q -2.320312,0 -4.148437,0.84375 -1.828125,0.808594 -3.09375,2.214844 -1.265625,1.40625 -1.96875,3.410156 -0.667969,1.96875 -0.667969,4.183594 0,2.320312 0.667969,4.21875 0.703125,1.898437 1.96875,3.3398435 1.265625,1.4414063 3.09375,2.25 1.828125,0.7734375 4.148437,0.7734375 2.285156,0 4.113281,-0.7734375 1.863282,-0.8085937 3.164063,-2.25 1.300781,-1.4414065 1.96875,-3.3398435 0.703125,-1.898438 0.703125,-4.21875 z"
       id="text1"
       style="font-weight:900;font-size:72px"
       aria-label="No" />
    <path
       d="m 34.277344,37.042969 q 0,4.605468 -0.984375,8.789062 -0.949219,4.148438 -3.09375,7.3125 -2.109375,3.128906 -5.484375,4.992188 Q 21.375,60 16.628906,60 H 1.7226562 V 14.121094 H 16.628906 q 4.675781,0 8.015625,1.898437 3.375,1.863281 5.484375,4.992188 2.144531,3.128906 3.128906,7.277343 1.019532,4.148438 1.019532,8.753907 z m -7.277344,0 q 0,-7.945313 -2.707031,-12.128907 -2.707032,-4.21875 -7.664063,-4.21875 H 9 v 32.765625 h 7.628906 q 4.957031,0 7.664063,-4.289062 Q 27,44.882812 27,37.042969 Z m 12.164062,13.535156 q 0,-2.882813 1.546875,-5.027344 1.546875,-2.179687 4.042969,-3.621094 2.53125,-1.441406 5.765625,-2.144531 3.269531,-0.738281 6.644531,-0.738281 1.863282,0 3.199219,0.07031 1.335938,0.07031 2.707031,0.210938 v -1.300781 q 0,-2.566407 -2.003906,-3.832032 -1.96875,-1.265625 -5.203125,-1.265625 -2.953125,0 -6.011719,0.84375 -3.058593,0.808594 -5.800781,2.390625 L 41.097656,30.46875 q 3.234375,-1.863281 6.925781,-2.917969 3.726563,-1.089844 7.839844,-1.089844 2.671875,0 5.238281,0.597657 2.601563,0.597656 4.640625,1.96875 2.074219,1.371093 3.304688,3.585937 1.230469,2.179688 1.230469,5.414063 V 60 h -7.207032 v -4.816406 q -1.722656,2.671875 -5.097656,4.148437 -3.339844,1.476563 -7.207031,1.476563 -2.390625,0 -4.535156,-0.667969 -2.109375,-0.632813 -3.65625,-1.933594 -1.546875,-1.300781 -2.496094,-3.199219 -0.914063,-1.933593 -0.914063,-4.429687 z m 13.464844,3.726562 q 2.144531,0 4.007813,-0.527343 1.898437,-0.5625 3.339843,-1.511719 1.441407,-0.984375 2.25,-2.355469 0.84375,-1.371094 0.84375,-3.023437 V 45.65625 q -1.722656,-0.28125 -3.234375,-0.316406 -1.511718,-0.03516 -2.671875,-0.03516 -5.34375,0 -8.085937,1.40625 -2.707031,1.40625 -2.707031,3.480469 0,4.113281 6.257812,4.113281 z m 59.097654,-4.746093 q -0.5625,5.167968 -4.07812,8.226562 -3.48047,3.023438 -8.718753,3.023438 -2.882812,0 -5.273437,-0.949219 -2.390625,-0.949219 -4.078125,-2.636719 -1.6875,-1.6875 -2.636719,-4.042969 -0.914062,-2.390625 -0.914062,-5.203125 V 33.808594 h -7.417969 v -6.574219 h 7.417969 V 14.121094 h 7.277343 v 13.113281 h 13.746093 v 6.574219 H 93.304687 v 14.167968 q 0,3.164063 1.546875,4.710938 1.546875,1.546875 4.078125,1.546875 3.093753,0 4.605473,-1.792969 1.51172,-1.792969 1.79297,-4.324219 z m 6.04688,1.019531 q 0,-2.882813 1.54687,-5.027344 1.54688,-2.179687 4.04297,-3.621094 2.53125,-1.441406 5.76563,-2.144531 3.26953,-0.738281 6.64453,-0.738281 1.86328,0 3.19922,0.07031 1.33593,0.07031 2.70703,0.210938 v -1.300781 q 0,-2.566407 -2.00391,-3.832032 -1.96875,-1.265625 -5.20312,-1.265625 -2.95313,0 -6.01172,0.84375 -3.0586,0.808594 -5.80078,2.390625 l -2.95313,-5.695312 q 3.23438,-1.863281 6.92578,-2.917969 3.72656,-1.089844 7.83985,-1.089844 2.67187,0 5.23828,0.597657 2.60156,0.597656 4.64062,1.96875 2.07422,1.371093 3.30469,3.585937 1.23047,2.179688 1.23047,5.414063 V 60 h -7.20703 v -4.816406 q -1.72266,2.671875 -5.09766,4.148437 -3.33984,1.476563 -7.20703,1.476563 -2.39062,0 -4.53516,-0.667969 -2.10937,-0.632813 -3.65625,-1.933594 -1.54687,-1.300781 -2.49609,-3.199219 -0.91406,-1.933593 -0.91406,-4.429687 z m 13.46484,3.726562 q 2.14453,0 4.00781,-0.527343 1.89844,-0.5625 3.33985,-1.511719 1.4414,-0.984375 2.25,-2.355469 0.84375,-1.371094 0.84375,-3.023437 V 45.65625 q -1.72266,-0.28125 -3.23438,-0.316406 -1.51172,-0.03516 -2.67187,-0.03516 -5.34375,0 -8.08594,1.40625 -2.70703,1.40625 -2.70703,3.480469 0,4.113281 6.25781,4.113281 z"
       id="text2"
       style="font-weight:900;font-size:72px"
       aria-label="Data" />
  </g>
</svg>
